<mxfile host="kOi">
  <diagram id="nkA" name="In progress">
    <mxGraphModel dx="0" dy="0" background="#FFFAFA" grid="0" gridSize="10" guides="1" tooltips="1" connect="1" arrows="1" fold="1" page="1" pageScale="1" pageWidth="1169" pageHeight="827" math="0" shadow="0">
      <root>
        <mxCell id="page_root_nkA" parent="nkA"/>
        <mxCell id="node_root_nkA" parent="page_root_nkA"/>
        <mxCell id="nkA-1" value="DrawIO DSL" style="whiteSpace=wrap;html=1;rounded=1;glass=1;fontColor=#1F2D3D;text;fontSize=28;fontStyle=1;fillColor=none" vertex="1" parent="node_root_nkA">
          <mxGeometry x="300" y="0" width="400" height="80" as="geometry"/>
        </mxCell>
        <mxCell id="nkA-3" value="add miniracer to gem and test sample JS with snapshot" style="whiteSpace=wrap;html=1;rounded=1;glass=1;fillColor=#d5e8d4;strokeColor=#82b366;fontColor=#333333" vertex="1" parent="node_root_nkA">
          <mxGeometry x="10" y="10" width="300" height="60" as="geometry"/>
        </mxCell>
        <mxCell id="nkA-4" value="add handlebarsjs file and load into snapshot" style="whiteSpace=wrap;html=1;rounded=1;glass=1;fillColor=#d5e8d4;strokeColor=#82b366;fontColor=#333333" vertex="1" parent="node_root_nkA">
          <mxGeometry x="330" y="10" width="300" height="60" as="geometry"/>
        </mxCell>
        <mxCell id="nkA-5" value="get handlebars working with simple templates" style="whiteSpace=wrap;html=1;rounded=1;glass=1;fillColor=#d5e8d4;strokeColor=#82b366;fontColor=#333333" vertex="1" parent="node_root_nkA">
          <mxGeometry x="650" y="10" width="300" height="60" as="geometry"/>
        </mxCell>
        <mxCell id="nkA-6" value="write a simple handlebars help in ruby" style="whiteSpace=wrap;html=1;rounded=1;glass=1;fillColor=#d5e8d4;strokeColor=#82b366;fontColor=#333333" vertex="1" parent="node_root_nkA">
          <mxGeometry x="10" y="90" width="300" height="60" as="geometry"/>
        </mxCell>
        <mxCell id="nkA-7" value="add project plan markdown to this gem and template" style="whiteSpace=wrap;html=1;rounded=1;glass=1;fillColor=#d5e8d4;strokeColor=#82b366;fontColor=#333333" vertex="1" parent="node_root_nkA">
          <mxGeometry x="330" y="90" width="300" height="60" as="geometry"/>
        </mxCell>
      </root>
    </mxGraphModel>
  </diagram>
  <diagram id="kwv" name="To Do">
    <mxGraphModel dx="0" dy="0" background="#FFFAFA" grid="0" gridSize="10" guides="1" tooltips="1" connect="1" arrows="1" fold="1" page="1" pageScale="1" pageWidth="1169" pageHeight="827" math="0" shadow="0">
      <root>
        <mxCell id="page_root_kwv" parent="kwv"/>
        <mxCell id="node_root_kwv" parent="page_root_kwv"/>
      </root>
    </mxGraphModel>
  </diagram>
  <diagram id="osb" name="Done">
    <mxGraphModel dx="0" dy="0" background="#FFFAFA" grid="0" gridSize="10" guides="1" tooltips="1" connect="1" arrows="1" fold="1" page="1" pageScale="1" pageWidth="1169" pageHeight="827" math="0" shadow="0">
      <root>
        <mxCell id="page_root_osb" parent="osb"/>
        <mxCell id="node_root_osb" parent="page_root_osb"/>
      </root>
    </mxGraphModel>
  </diagram>
</mxfile>